# xmcd
#
# Track frame offsets: 
#        150
#        15945
#        30761
#        46247
#        60413
#        79525
#        97532
#        118643
#        139703
#        156319
#        172628
#        189143
#
# Disc length: 2702 seconds
#
# Revision: 3
# Processed by: cddbd v1.5.2PL0 Copyright (c) Steve Scherf et al.
# Submitted via: ExactAudioCopy v0.99pb4
#
DISCID=6f0a8c0c
DTITLE=Katie Melua - Piece By Piece
DYEAR=2005
DGENRE=Blues
TTITLE0=Shy Boy
TTITLE1=Nine Million Bicycles
TTITLE2=Piece By Piece
TTITLE3=Halfway Up The Hindu Kush
TTITLE4=Blues In The Night
TTITLE5=Spider's Web
TTITLE6=Blue Shoes
TTITLE7=On The Road Again
TTITLE8=Thank You, Stars
TTITLE9=Just Like Heaven
TTITLE10=I Cried For You
TTITLE11=I Do Believe In love
EXTD=
EXTT0=
EXTT1=
EXTT2=
EXTT3=
EXTT4=
EXTT5=
EXTT6=
EXTT7=
EXTT8=
EXTT9=
EXTT10=
EXTT11=
PLAYORDER=
